# xmcd
#
# Track frame offsets:
#  150
#  13262
#  26608
#  39991
#  53445
#  67689
#  81585
#  93372
#  106222
#  118742
#  132449
#  146511
#  161714
#  174643
#  188706
#  201760
#  215539
#  227849
#  241556
#  254004
#  268164
#  281195
#  295689
#  307417
#  319498
#
# Disc length: 4416 seconds
#
# Revision: 0
# Processed by: cddbd v1.5.2PL0 Copyright (c) Steve Scherf et al.
# Submitted via: AltoMP3_Maker 3.0
#
DISCID=78113e19
DTITLE=Roosevelt Sykes - The Roosevelt Sykes Collection, 1928-47, CD2
DYEAR=1900
DGENRE=
TTITLE0=Love Lease Blues
TTITLE1=Hard Lead Pencil
TTITLE2=Sad Yas Yas (You Fade Away Like Morning Dew)
TTITLE3=The Road to Ruin
TTITLE4=Mistake in Life
TTITLE5=Night Time Is the Right Time No. 2
TTITLE6=She's Long Gone
TTITLE7=The Train Is Coming (No More Baby Talk)
TTITLE8=Down on My Knees
TTITLE9=Have You Seen Ida B.
TTITLE10=44 Blues
TTITLE11=Bitter Cup Blues
TTITLE12=Journey from the Germs
TTITLE13=You Can't Fix It Back
TTITLE14=Get your Bow out (Then You Will Understand)
TTITLE15=Yellow Yam Blues
TTITLE16=Right Now
TTITLE17=Essie Mae Blues
TTITLE18=She's Got What It Takes
TTITLE19=Pistol Shootin' Blues
TTITLE20=Eight Ball Blues
TTITLE21=47th Street Jive
TTITLE22=Doin' the Sally Long
TTITLE23=Low as a Toad
TTITLE24=Prison Gate Blues
EXTD=
EXTT0=
EXTT1=
EXTT2=
EXTT3=
EXTT4=
EXTT5=
EXTT6=
EXTT7=
EXTT8=
EXTT9=
EXTT10=
EXTT11=
EXTT12=
EXTT13=
EXTT14=
EXTT15=
EXTT16=
EXTT17=
EXTT18=
EXTT19=
EXTT20=
EXTT21=
EXTT22=
EXTT23=
EXTT24=
PLAYORDER=
